<svg viewBox="0 0 336 198" xmlns="http://www.w3.org/2000/svg">
    <path d="M148 9.6c-9.6 5.3-18.5 10.1-19.7 10.6-1.9.9-2.9.4-7.5-3.6C102.2-.2 78.7 0 59.7 17c-6.5 5.9-13 14.7-17.5 23.5-3.9 7.9-8.8 22-9.7 27.9-.8 5.1-.9 5.3-12 11.9-9.6 5.8-11.8 9.3-11.3 17.8.5 8.7 2.8 11.7 13.8 17.8l8.5 4.7 1.7 6.8c6.6 27.5 20.4 48 38 57 16.3 8.3 34 5.9 49-6.5 2.6-2.1 5.2-3.9 5.9-3.9.8 0 10 4.8 20.6 10.6 10.7 5.8 20.9 10.8 22.7 11.1 4.9.8 8.4-.7 29.3-12.2 10.3-5.8 19.4-10.5 20.1-10.5.7 0 4.1 2.4 7.5 5.3 3.4 2.9 9.1 6.6 12.7 8.2 5.9 2.7 7.5 3 17 3 10 0 10.9-.2 18-3.6 4.1-2 10.1-5.9 13.3-8.8 11.4-10.5 21.5-29.2 25.9-47.9 1.1-4.8 2.2-9.2 2.3-9.8.2-.6 3.3-2.8 6.9-4.8 8.8-4.9 11.6-9.1 11.6-17.1 0-4.2-.6-7-2-9.2-2.1-3.5-8.1-8.3-12.9-10.3-3.3-1.3-3.3-1.3-5.5-11.1-6.9-30.4-25.9-54.9-47-60.5-9.7-2.6-21.2-1.2-30.6 3.6-1.9 1-6.3 4.1-9.8 6.9-3.4 2.8-6.7 5.1-7.3 5.1-1 0-10.5-5-27-14.3C179.1.5 177.8 0 171.6 0c-5.8 0-6.9.4-23.6 9.6zm-49.3 9.9c2.9 1.5 6.1 3.7 7.2 4.9l2.1 2.2-7.8-.1c-6 0-8.7.5-12.3 2.2-4 2-6.1 2.3-17.3 2.3H57.8l1.4-2.3c1.9-2.8 12.3-10.2 16.3-11.6 1.7-.5 6.4-.9 10.5-.7 6.1.2 8.6.8 12.7 3.1zm161.2-2c4.6 1.6 13.1 7.1 13.1 8.5 0 .5-2.4.6-5.4.3-7.8-.8-14.4 1.7-21.4 8.2-3.1 2.9-6.8 7.1-8.2 9.4l-2.5 4-10.7.1c-8.3 0-10.8-.3-10.8-1.3 0-1.8 6.3-12.2 10.6-17.4 4-4.9 11.1-10.1 16.4-11.9 4.8-1.8 13.9-1.7 18.9.1zm9.4 26.9c2.1.8 4.8 2.2 5.9 3.3 2 1.8 1.9 1.8-4.1 2.4-4.8.5-7 1.3-9.9 3.6-5.3 4.3-9.9 11.6-12.9 20.8-2.2 6.8-2.6 9.9-2.7 20.5-.1 14.2 1.1 20.3 6 30.6 5.7 12.2 15.8 19.2 23.9 16.7 4.7-1.5 4.4 0-.7 3.7-9.6 7-18.8 6.1-27.4-2.5-5.9-5.9-9.2-11.7-12.6-22.5-2-6.6-2.3-9.5-2.3-24.5 0-13.9.3-18.1 1.9-23 3.2-10 8.5-19.2 13.8-24 7.1-6.3 13.3-7.8 21.1-5.1zM64.7 58.2c-.3 1.3-1.5 5.9-2.7 10.3-1.2 4.7-2.4 12.6-2.7 19.2L58.7 99h-21l.6-10.8c.7-10 2-18.1 4.6-28l1.2-4.2h10.6c10.4 0 10.5 0 10 2.2zM229 63.9c0 3.7-1.2 4.1-11 4.1-10 0-11.5-.5-10.4-3.4.5-1.3 2.4-1.6 11-1.6 5.7 0 10.4.4 10.4.9zm-118.6 2.6c1.7 1.3 1.5 1.4-2.1 2.4-4.8 1.3-8.5 5-11.5 11.6-2 4.3-2.3 6.6-2.3 16 .1 9.3.4 11.8 2.4 16.3 2.6 5.8 7.7 10.9 11.9 11.8 1.5.3 3.2.7 3.7.8 2.1.6-5.6 3.6-9.1 3.6-3.2 0-4.5-.7-8.3-4.8-6-6.3-8.3-12.9-8.9-25.5-.6-13.2 2.1-21.9 8.8-28.9 4.2-4.3 5.1-4.8 9.1-4.8 2.4 0 5.2.7 6.3 1.5zm176 1.6c12.2 10.6 13.8 40.4 3.1 54.5-3.8 5-7.3 6.4-15.6 6.4-8.5 0-12-1.8-16.2-8.5-5.6-8.8-7.5-27.5-3.9-38 1.4-4.3 2.1-5 4.5-5.3 5.2-.6 5.6.1 3.6 6-4.8 13.8 0 35.7 8.7 39.7 4.2 1.9 6.6 1.3 10.5-2.8 5.2-5.5 7.4-12.5 7.3-23.6 0-11.2-2.2-18.2-7.3-23.6-4.1-4.3-8-5.1-11.5-2.4-1.1.8-3.9 1.5-6.3 1.5-3.7 0-4.3-.3-3.5-1.6 2.1-3.8 6.5-5.4 14.9-5.4 7.8 0 8.4.2 11.7 3.1zM226.1 75c-1.1 4.3-1.2 31.9-.1 38.8 3.8 23.9 15.2 43.4 28.7 49.4 5.1 2.2 14 2.7 18.7.9 1.6-.7 3.1-.9 3.4-.6 1 .9-7.2 7.8-12.9 11-4.7 2.6-6.4 3-13.4 3-10 0-15.1-2.3-23.3-10.4-9-8.9-15-20.6-19.9-39.3-2.6-9.6-2.8-11.7-2.8-30.8 0-11.3.3-21.3.7-22.3.7-1.6 2-1.7 11-1.5 8.6.3 10.2.6 9.9 1.8zm53.1 9.3c7.6 7.1 4.5 26.7-4.2 26.7-2.4 0-5-1.6-5-3 0-.3 1.5-.4 3.4-.2 2.8.3 3.7-.1 5.1-2.2 2.5-3.8 3-10.4 1.2-14.8-2-4.8-4.5-6.1-8-4.3-2.5 1.3-2.6 1.3-1.7-.5 1.1-2 3.8-3.9 5.6-4 .6 0 2.2 1 3.6 2.3zm-80.4 4.9c-.3.9-7.6 1.8-25.4 3-13.7.9-26 1.8-27.4 1.9-1.4.2 9.9.6 25 .9l27.5.5.3 5.2.3 5.3H108l-1.2-2.5c-1.3-2.8-.7-4.6 3.7-11.4L113 88h43.1c34 0 43 .3 42.7 1.2zm-139 26c3.1 3.1 1.4 3.8-9.2 3.8-10.5 0-12.4-.6-11.2-3.5.7-1.9 18.5-2.2 20.4-.3zm1.9 10c.6.7 1.8 3.7 2.8 6.6 4 12.3 14.1 26.4 21.6 30.3 6.6 3.3 12.7 4.1 18.9 2.5 3-.8 5.7-1.2 6-.9.9.9-8.3 8.4-13.5 11-6.1 3.2-15.2 4-21.5 2-6.2-1.9-14-7.7-18.9-14-7.2-9.4-17.6-34.5-15.6-37.7.9-1.5 19.1-1.3 20.2.2z" fill="#16efa4"/>
</svg>
