<svg xmlns="http://www.w3.org/2000/svg" xmlns:xlink="http://www.w3.org/1999/xlink" viewBox="0 0 48 48"><defs><radialGradient id="radial-gradient" cx="36" cy="18" r="6" gradientUnits="userSpaceOnUse"><stop offset="0" stop-color="#ff568d"/><stop offset=".454" stop-color="#ff9678"/><stop offset=".817" stop-color="#ffc26a"/><stop offset="1" stop-color="#ffd364"/></radialGradient><radialGradient id="radial-gradient-2" cx="12" xlink:href="#radial-gradient"/><style>.cls-4{fill:#f6fafd}.cls-7{fill:#273941}</style></defs><g id="_10-shy" data-name="10-shy"><circle cx="24" cy="24" r="23" style="fill:#ffce52"/><path d="M24 4c12.15 0 22 8.507 22 19h.975a23 23 0 0 0-45.95 0H2C2 12.507 11.85 4 24 4z" style="fill:#ffe369"/><path d="M46 23c0 10.493-9.85 19-22 19S2 33.493 2 23h-.975c-.014.332-.025.665-.025 1a23 23 0 0 0 46 0c0-.335-.011-.668-.025-1z" style="fill:#ffb32b"/><ellipse class="cls-4" cx="36.5" cy="7.5" rx=".825" ry="1.148" transform="rotate(-45.02 36.5 7.5)"/><ellipse class="cls-4" cx="30.246" cy="4" rx=".413" ry=".574" transform="rotate(-45.02 30.246 4)"/><ellipse class="cls-4" cx="33.5" cy="5.5" rx="1.65" ry="2.297" transform="rotate(-45.02 33.5 5.5)"/><circle cx="36" cy="18" r="6" style="fill:url(#radial-gradient)"/><circle cx="12" cy="18" r="6" style="fill:url(#radial-gradient-2)"/><path class="cls-7" d="M24 28c-4.411 0-8-3.14-8-7h2c0 2.757 2.691 5 6 5s6-2.243 6-5h2c0 3.86-3.589 7-8 7zM38 13h-2a3 3 0 0 0-6 0h-2a5 5 0 0 1 10 0zM20 13h-2a3 3 0 0 0-6 0h-2a5 5 0 0 1 10 0z"/></g></svg>