<svg width="20" height="20" viewBox="0 0 20 20" fill="none" xmlns="http://www.w3.org/2000/svg">
<path d="M10.0003 18.3333C8.84755 18.3333 7.76422 18.1144 6.75033 17.6767C5.73644 17.2389 4.85449 16.6453 4.10449 15.8958C3.35449 15.1464 2.76088 14.2644 2.32366 13.25C1.88644 12.2355 1.66755 11.1522 1.66699 9.99999C1.66644 8.84777 1.88533 7.76443 2.32366 6.74999C2.76199 5.73555 3.3556 4.8536 4.10449 4.10416C4.85338 3.35471 5.73533 2.7611 6.75033 2.32332C7.76533 1.88555 8.84866 1.66666 10.0003 1.66666C11.152 1.66666 12.2353 1.88555 13.2503 2.32332C14.2653 2.7611 15.1473 3.35471 15.8962 4.10416C16.645 4.8536 17.2389 5.73555 17.6778 6.74999C18.1167 7.76443 18.3353 8.84777 18.3337 9.99999C18.332 11.1522 18.1131 12.2355 17.677 13.25C17.2409 14.2644 16.6473 15.1464 15.8962 15.8958C15.145 16.6453 14.2631 17.2392 13.2503 17.6775C12.2375 18.1158 11.1542 18.3344 10.0003 18.3333ZM10.0003 16.6667C11.8614 16.6667 13.4378 16.0208 14.7295 14.7292C16.0212 13.4375 16.667 11.8611 16.667 9.99999C16.667 8.13888 16.0212 6.56249 14.7295 5.27082C13.4378 3.97916 11.8614 3.33332 10.0003 3.33332C8.13922 3.33332 6.56283 3.97916 5.27116 5.27082C3.97949 6.56249 3.33366 8.13888 3.33366 9.99999C3.33366 11.8611 3.97949 13.4375 5.27116 14.7292C6.56283 16.0208 8.13922 16.6667 10.0003 16.6667Z" fill="white"/>
</svg>
