<svg xmlns="http://www.w3.org/2000/svg" viewBox="0 0 48 48"><defs><style>.cls-3{fill:#273941}.cls-4{fill:#141e21}.cls-5{fill:#f6fafd}.cls-7{fill:#ffb32b}</style></defs><g id="_23-sad" data-name="23-sad"><circle cx="24" cy="24" r="23" style="fill:#ffce52"/><path d="M37 35.667A3.179 3.179 0 0 1 34 39a3.179 3.179 0 0 1-3-3.333C31 33.826 33.25 29 34 29s3 4.826 3 6.667z" style="fill:#3bc5f6"/><path class="cls-3" d="M10 17v-2c3.722 0 6-1.295 6-2h2c0 2.626-4.024 4-8 4zM38 17c-3.976 0-8-1.374-8-4h2c0 .705 2.278 2 6 2zM24 35a10.343 10.343 0 0 0-4 1 4 4 0 0 1 8 0 10.343 10.343 0 0 0-4-1z"/><circle class="cls-3" cx="34" cy="22" r="5"/><circle class="cls-3" cx="14" cy="22" r="5"/><circle class="cls-4" cx="34" cy="22" r="4"/><circle class="cls-4" cx="14" cy="22" r="4"/><circle class="cls-5" cx="35.5" cy="20.5" r="1.5"/><circle class="cls-5" cx="32.5" cy="23.5" r="1.5"/><circle class="cls-5" cx="35.5" cy="23.5" r=".5"/><circle class="cls-5" cx="12.5" cy="20.5" r="1.5"/><circle class="cls-5" cx="15.5" cy="23.5" r="1.5"/><circle class="cls-5" cx="12.5" cy="23.5" r=".5"/><path d="M24 4c12.15 0 22 8.507 22 19h.975a23 23 0 0 0-45.95 0H2C2 12.507 11.85 4 24 4z" style="fill:#ffe369"/><path class="cls-7" d="M46 23c0 10.493-9.85 19-22 19S2 33.493 2 23h-.975c-.014.332-.025.665-.025 1a23 23 0 0 0 46 0c0-.335-.011-.668-.025-1z"/><ellipse class="cls-5" cx="37" cy="9" rx=".825" ry="1.148" transform="rotate(-45.02 37 9)"/><ellipse class="cls-5" cx="30.746" cy="4.5" rx=".413" ry=".574" transform="rotate(-45.02 30.745 4.5)"/><ellipse class="cls-5" cx="34" cy="7" rx="1.65" ry="2.297" transform="rotate(-45.02 34 7)"/><path d="M34.135 29.047c.723.439 2.365 3.908 2.365 5.286a2.505 2.505 0 1 1-5 0c0-1.378 1.642-4.847 2.365-5.286-.852.469-2.865 4.877-2.865 6.62A3.179 3.179 0 0 0 34 39a3.179 3.179 0 0 0 3-3.333c0-1.743-2.013-6.151-2.865-6.62z" style="fill:#00a3e1"/><ellipse class="cls-5" cx="35" cy="35" rx=".825" ry="1.148" transform="rotate(-45.02 35 35)"/><ellipse class="cls-5" cx="35.746" cy="33.5" rx=".413" ry=".574" transform="rotate(-45.02 35.746 33.5)"/><path class="cls-7" d="M34 39a3.048 3.048 0 0 1-2.853-2.354A4.808 4.808 0 0 0 31 37.667 3.179 3.179 0 0 0 34 41a3.179 3.179 0 0 0 3-3.333 4.808 4.808 0 0 0-.147-1.021A3.048 3.048 0 0 1 34 39z"/></g></svg>